<mxfile host="app.diagrams.net" modified="2023-07-19T14:02:09.988Z" agent="Mozilla/5.0 (Windows NT 10.0; Win64; x64) AppleWebKit/537.36 (KHTML, like Gecko) Chrome/114.0.0.0 Safari/537.36" etag="X76PlBW3JWnvtwEtFhz4" version="21.6.3" type="github">
  <diagram name="第 1 页" id="gz_1HcEmWOaxDN2hrRe3">
    <mxGraphModel dx="382" dy="249" grid="1" gridSize="10" guides="1" tooltips="1" connect="1" arrows="1" fold="1" page="1" pageScale="1" pageWidth="827" pageHeight="1169" math="0" shadow="0">
      <root>
        <mxCell id="0" />
        <mxCell id="1" parent="0" />
        <mxCell id="GjrDa6_s9Q-jEZt4sRzl-2" value="用户空间" style="rounded=1;whiteSpace=wrap;html=1;fillColor=#dae8fc;strokeColor=#6c8ebf;" vertex="1" parent="1">
          <mxGeometry x="138" y="120" width="70" height="20" as="geometry" />
        </mxCell>
        <mxCell id="GjrDa6_s9Q-jEZt4sRzl-3" value="内核空间" style="rounded=1;whiteSpace=wrap;html=1;fillColor=#dae8fc;strokeColor=#6c8ebf;" vertex="1" parent="1">
          <mxGeometry x="254" y="120" width="70" height="20" as="geometry" />
        </mxCell>
        <mxCell id="GjrDa6_s9Q-jEZt4sRzl-4" value="" style="endArrow=none;dashed=1;html=1;dashPattern=1 3;strokeWidth=2;rounded=0;" edge="1" parent="1">
          <mxGeometry width="50" height="50" relative="1" as="geometry">
            <mxPoint x="237" y="280" as="sourcePoint" />
            <mxPoint x="237" y="80" as="targetPoint" />
          </mxGeometry>
        </mxCell>
        <mxCell id="GjrDa6_s9Q-jEZt4sRzl-5" value="应用程序内存" style="rounded=0;whiteSpace=wrap;html=1;fillColor=#ffe6cc;strokeColor=#d79b00;" vertex="1" parent="1">
          <mxGeometry x="148" y="160" width="60" height="120" as="geometry" />
        </mxCell>
        <mxCell id="GjrDa6_s9Q-jEZt4sRzl-6" value="内核缓冲区&lt;br&gt;（Page Cache）" style="rounded=0;whiteSpace=wrap;html=1;fillColor=#f8cecc;strokeColor=#b85450;" vertex="1" parent="1">
          <mxGeometry x="254" y="170" width="110" height="30" as="geometry" />
        </mxCell>
        <mxCell id="GjrDa6_s9Q-jEZt4sRzl-8" value="Socket缓冲区" style="rounded=0;whiteSpace=wrap;html=1;fillColor=#e1d5e7;strokeColor=#9673a6;" vertex="1" parent="1">
          <mxGeometry x="254" y="246" width="110" height="30" as="geometry" />
        </mxCell>
        <mxCell id="GjrDa6_s9Q-jEZt4sRzl-9" value="" style="endArrow=classic;html=1;rounded=0;entryX=1.017;entryY=0.197;entryDx=0;entryDy=0;exitX=0;exitY=0.5;exitDx=0;exitDy=0;entryPerimeter=0;" edge="1" parent="1" target="GjrDa6_s9Q-jEZt4sRzl-5">
          <mxGeometry width="50" height="50" relative="1" as="geometry">
            <mxPoint x="254" y="183.64" as="sourcePoint" />
            <mxPoint x="206.14" y="186.35999999999996" as="targetPoint" />
          </mxGeometry>
        </mxCell>
        <mxCell id="GjrDa6_s9Q-jEZt4sRzl-10" value="" style="endArrow=classic;html=1;rounded=0;entryX=0;entryY=0.5;entryDx=0;entryDy=0;" edge="1" parent="1" target="GjrDa6_s9Q-jEZt4sRzl-8">
          <mxGeometry width="50" height="50" relative="1" as="geometry">
            <mxPoint x="210" y="261" as="sourcePoint" />
            <mxPoint x="320" y="190" as="targetPoint" />
          </mxGeometry>
        </mxCell>
        <mxCell id="GjrDa6_s9Q-jEZt4sRzl-11" value="磁盘" style="shape=hexagon;perimeter=hexagonPerimeter2;whiteSpace=wrap;html=1;fixedSize=1;fillColor=#60a917;fontColor=#ffffff;strokeColor=#2D7600;" vertex="1" parent="1">
          <mxGeometry x="402" y="165" width="60" height="40" as="geometry" />
        </mxCell>
        <mxCell id="GjrDa6_s9Q-jEZt4sRzl-12" value="" style="endArrow=classic;html=1;rounded=0;entryX=1;entryY=0.5;entryDx=0;entryDy=0;exitX=0;exitY=0.5;exitDx=0;exitDy=0;" edge="1" parent="1" source="GjrDa6_s9Q-jEZt4sRzl-11" target="GjrDa6_s9Q-jEZt4sRzl-6">
          <mxGeometry width="50" height="50" relative="1" as="geometry">
            <mxPoint x="200" y="200" as="sourcePoint" />
            <mxPoint x="250" y="150" as="targetPoint" />
          </mxGeometry>
        </mxCell>
        <mxCell id="GjrDa6_s9Q-jEZt4sRzl-13" value="网络" style="ellipse;whiteSpace=wrap;html=1;aspect=fixed;fillColor=#0050ef;fontColor=#ffffff;strokeColor=#001DBC;" vertex="1" parent="1">
          <mxGeometry x="402" y="235" width="52" height="52" as="geometry" />
        </mxCell>
        <mxCell id="GjrDa6_s9Q-jEZt4sRzl-14" value="" style="endArrow=classic;html=1;rounded=0;entryX=0;entryY=0.5;entryDx=0;entryDy=0;exitX=1;exitY=0.5;exitDx=0;exitDy=0;" edge="1" parent="1" source="GjrDa6_s9Q-jEZt4sRzl-8" target="GjrDa6_s9Q-jEZt4sRzl-13">
          <mxGeometry width="50" height="50" relative="1" as="geometry">
            <mxPoint x="200" y="200" as="sourcePoint" />
            <mxPoint x="250" y="150" as="targetPoint" />
          </mxGeometry>
        </mxCell>
        <mxCell id="GjrDa6_s9Q-jEZt4sRzl-15" value="直接IO实现文件的网络发送示意图" style="text;strokeColor=none;align=center;fillColor=none;html=1;verticalAlign=middle;whiteSpace=wrap;rounded=0;" vertex="1" parent="1">
          <mxGeometry x="170" y="300" width="210" height="30" as="geometry" />
        </mxCell>
      </root>
    </mxGraphModel>
  </diagram>
</mxfile>
